<svg width="510" height="144" viewBox="0 0 510 144" fill="none" xmlns="http://www.w3.org/2000/svg">
<rect width="510" height="144" rx="72" fill="url(#paint0_radial_60_168)"/>
<circle cx="72" cy="72" r="50" fill="#F23A19" stroke="#FFAD0E" stroke-width="4"/>
<path d="M82.7693 88.4566L76.8525 58.9722C81.3179 65.5474 87.0946 73.4324 93.045 76.9571C96.6152 79.0719 104.617 81.7131 114.144 82.1606L82.7693 88.4566Z" fill="url(#paint1_linear_60_168)"/>
<path d="M82.7696 88.4565L53.2852 94.3733C59.8604 89.908 67.7454 84.1312 71.2701 78.1809C73.3849 74.6107 76.0261 66.6093 76.4736 57.082L82.7696 88.4565Z" fill="url(#paint2_linear_60_168)"/>
<path d="M82.7697 88.4564L88.6865 117.941C84.2212 111.366 78.4445 103.481 72.4941 99.956C68.9239 97.8412 60.9225 95.2 51.3952 94.7525L82.7697 88.4564Z" fill="url(#paint3_linear_60_168)"/>
<path d="M82.7694 88.4563L112.254 82.5396C105.679 87.0049 97.7936 92.7816 94.269 98.732C92.1542 102.302 89.513 110.304 89.0655 119.831L82.7694 88.4563Z" fill="url(#paint4_linear_60_168)"/>
<path d="M38.1265 54.2879L35.9077 43.2312C37.5822 45.6969 39.7485 48.6538 41.9799 49.9756C43.3187 50.7686 46.3192 51.759 49.8919 51.9269L38.1265 54.2879Z" fill="url(#paint5_linear_60_168)"/>
<path d="M38.126 54.2878L27.0693 56.5066C29.5351 54.8321 32.4919 52.6658 33.8137 50.4344C34.6067 49.0956 35.5972 46.0951 35.765 42.5224L38.126 54.2878Z" fill="url(#paint6_linear_60_168)"/>
<path d="M38.1264 54.2878L40.3452 65.3445C38.6707 62.8788 36.5044 59.9219 34.2731 58.6001C32.9342 57.8071 29.9337 56.8166 26.361 56.6488L38.1264 54.2878Z" fill="url(#paint7_linear_60_168)"/>
<path d="M38.1264 54.2876L49.1831 52.0688C46.7174 53.7433 43.7605 55.9096 42.4388 58.141C41.6457 59.4798 40.6553 62.4803 40.4875 66.0531L38.1264 54.2876Z" fill="url(#paint8_linear_60_168)"/>
<path d="M94.7628 29.5011L90.3252 7.3877C93.6742 12.3192 98.0068 18.2329 102.47 20.8764C105.147 22.4625 111.148 24.4434 118.294 24.779L94.7628 29.5011Z" fill="url(#paint9_linear_60_168)"/>
<path d="M94.7623 29.5009L72.6489 33.9385C77.5804 30.5895 83.4941 26.2569 86.1376 21.7941C87.7237 19.1165 89.7046 13.1155 90.0403 5.96998L94.7623 29.5009Z" fill="url(#paint10_linear_60_168)"/>
<path d="M94.7631 29.5011L99.2007 51.6145C95.8517 46.683 91.5191 40.7693 87.0563 38.1258C84.3787 36.5397 78.3777 34.5588 71.2322 34.2232L94.7631 29.5011Z" fill="url(#paint11_linear_60_168)"/>
<path d="M94.7626 29.5008L116.876 25.0632C111.945 28.4122 106.031 32.7448 103.387 37.2076C101.801 39.8852 99.8203 45.8863 99.4846 53.0317L94.7626 29.5008Z" fill="url(#paint12_linear_60_168)"/>
<defs>
<radialGradient id="paint0_radial_60_168" cx="0" cy="0" r="1" gradientUnits="userSpaceOnUse" gradientTransform="translate(6.64064 -9.10409e-06) rotate(41.281) scale(304.375 714.923)">
<stop stop-color="#0069BE"/>
<stop offset="1" stop-color="#002E53"/>
</radialGradient>
<linearGradient id="paint1_linear_60_168" x1="77.9904" y1="64.6423" x2="95.9983" y2="83.8358" gradientUnits="userSpaceOnUse">
<stop stop-color="#B3B3B3"/>
<stop offset="1" stop-color="#D9D9D9"/>
</linearGradient>
<linearGradient id="paint2_linear_60_168" x1="79.3587" y1="75.378" x2="61.978" y2="90.6627" gradientUnits="userSpaceOnUse">
<stop stop-color="#AAA9A9"/>
<stop offset="1" stop-color="#EAEAEA"/>
</linearGradient>
<linearGradient id="paint3_linear_60_168" x1="67.652" y1="95.4225" x2="84.8255" y2="110.458" gradientUnits="userSpaceOnUse">
<stop stop-color="#A9A7A7"/>
<stop offset="1" stop-color="#D9D9D9"/>
</linearGradient>
<linearGradient id="paint4_linear_60_168" x1="82.7694" y1="88.4563" x2="97.2917" y2="96.1592" gradientUnits="userSpaceOnUse">
<stop stop-color="#D9D9D9"/>
<stop offset="1" stop-color="#939393"/>
</linearGradient>
<linearGradient id="paint5_linear_60_168" x1="36.3344" y1="45.3575" x2="43.0874" y2="52.5551" gradientUnits="userSpaceOnUse">
<stop stop-color="#B3B3B3"/>
<stop offset="1" stop-color="#D9D9D9"/>
</linearGradient>
<linearGradient id="paint6_linear_60_168" x1="36.8469" y1="49.3834" x2="30.3292" y2="55.1151" gradientUnits="userSpaceOnUse">
<stop stop-color="#AAA9A9"/>
<stop offset="1" stop-color="#EAEAEA"/>
</linearGradient>
<linearGradient id="paint7_linear_60_168" x1="32.4573" y1="56.9001" x2="38.8973" y2="62.5384" gradientUnits="userSpaceOnUse">
<stop stop-color="#A9A7A7"/>
<stop offset="1" stop-color="#D9D9D9"/>
</linearGradient>
<linearGradient id="paint8_linear_60_168" x1="38.1264" y1="54.2876" x2="43.5723" y2="57.1762" gradientUnits="userSpaceOnUse">
<stop stop-color="#D9D9D9"/>
<stop offset="1" stop-color="#939393"/>
</linearGradient>
<linearGradient id="paint9_linear_60_168" x1="91.1786" y1="11.6403" x2="104.685" y2="26.0354" gradientUnits="userSpaceOnUse">
<stop stop-color="#B3B3B3"/>
<stop offset="1" stop-color="#D9D9D9"/>
</linearGradient>
<linearGradient id="paint10_linear_60_168" x1="92.2041" y1="19.692" x2="79.1686" y2="31.1555" gradientUnits="userSpaceOnUse">
<stop stop-color="#AAA9A9"/>
<stop offset="1" stop-color="#EAEAEA"/>
</linearGradient>
<linearGradient id="paint11_linear_60_168" x1="83.4248" y1="34.7256" x2="96.3049" y2="46.0023" gradientUnits="userSpaceOnUse">
<stop stop-color="#A9A7A7"/>
<stop offset="1" stop-color="#D9D9D9"/>
</linearGradient>
<linearGradient id="paint12_linear_60_168" x1="94.7626" y1="29.5008" x2="105.654" y2="35.278" gradientUnits="userSpaceOnUse">
<stop stop-color="#D9D9D9"/>
<stop offset="1" stop-color="#939393"/>
</linearGradient>
</defs>
</svg>
