<svg width="101" height="70" viewBox="0 0 101 70" fill="none" xmlns="http://www.w3.org/2000/svg">
<path d="M32.3057 23.0909V58H26.6807L10.2318 34.2216H9.94205V58H3.61818V23.0909H9.27727L25.7091 46.8864H26.0159V23.0909H32.3057ZM34.3963 23.0909H42.1349L52.4986 48.3864H52.9077L63.2713 23.0909H71.0099V58H64.9418V34.017H64.6179L54.9702 57.8977H50.4361L40.7884 33.9659H40.4645V58H34.3963V23.0909ZM92.0679 32.6875C91.9088 31.1989 91.2383 30.0398 90.0565 29.2102C88.8861 28.3807 87.3634 27.9659 85.4884 27.9659C84.1702 27.9659 83.0395 28.1648 82.0963 28.5625C81.1531 28.9602 80.4315 29.5 79.9315 30.1818C79.4315 30.8636 79.1758 31.642 79.1645 32.517C79.1645 33.2443 79.3293 33.875 79.6588 34.4091C79.9997 34.9432 80.4599 35.3977 81.0395 35.7727C81.619 36.1364 82.2611 36.4432 82.9656 36.6932C83.6702 36.9432 84.3804 37.1534 85.0963 37.3239L88.369 38.142C89.6872 38.4489 90.9543 38.8636 92.1702 39.3864C93.3974 39.9091 94.494 40.5682 95.4599 41.3636C96.4372 42.1591 97.2099 43.1193 97.7781 44.2443C98.3463 45.3693 98.6304 46.6875 98.6304 48.1989C98.6304 50.2443 98.1077 52.0455 97.0622 53.6023C96.0168 55.1477 94.5054 56.358 92.5281 57.233C90.5622 58.0966 88.1815 58.5284 85.3861 58.5284C82.6702 58.5284 80.3122 58.108 78.3122 57.267C76.3236 56.4261 74.7668 55.1989 73.6418 53.5852C72.5281 51.9716 71.9258 50.0057 71.8349 47.6875H78.0565C78.1474 48.9034 78.5224 49.9148 79.1815 50.7216C79.8406 51.5284 80.6986 52.1307 81.7554 52.5284C82.8236 52.9261 84.0168 53.125 85.3349 53.125C86.7099 53.125 87.9145 52.9205 88.9486 52.5114C89.994 52.0909 90.8122 51.5114 91.4031 50.7727C91.994 50.0227 92.2952 49.1477 92.3065 48.1477C92.2952 47.2386 92.0281 46.4886 91.5054 45.8977C90.9827 45.2955 90.2497 44.7955 89.3065 44.3977C88.3747 43.9886 87.2838 43.625 86.0338 43.3068L82.0622 42.2841C79.1872 41.5455 76.9145 40.4261 75.244 38.9261C73.5849 37.4148 72.7554 35.4091 72.7554 32.9091C72.7554 30.8523 73.3122 29.0511 74.4258 27.5057C75.5508 25.9602 77.0793 24.7614 79.0111 23.9091C80.9429 23.0455 83.1304 22.6136 85.5736 22.6136C88.0509 22.6136 90.2213 23.0455 92.0849 23.9091C93.9599 24.7614 95.4315 25.9489 96.4997 27.4716C97.5679 28.983 98.119 30.7216 98.1531 32.6875H92.0679Z" fill="#1C1E1E"/>
<circle cx="77" cy="6" r="6" fill="#0069BE"/>
<circle cx="95" cy="6" r="6" fill="#F23A19"/>
</svg>
