<svg width="619" height="58" viewBox="0 0 619 58" fill="none" xmlns="http://www.w3.org/2000/svg">
<path d="M32.4432 11.0909V46H26.8182L10.3693 22.2216H10.0795V46H3.75568V11.0909H9.41477L25.8466 34.8864H26.1534V11.0909H32.4432ZM50.652 46.5114C48.027 46.5114 45.7599 45.9659 43.8509 44.875C41.9531 43.7727 40.4929 42.2159 39.4702 40.2045C38.4474 38.1818 37.9361 35.8011 37.9361 33.0625C37.9361 30.3693 38.4474 28.0057 39.4702 25.9716C40.5043 23.9261 41.9474 22.3352 43.7997 21.1989C45.652 20.0511 47.8281 19.4773 50.3281 19.4773C51.9418 19.4773 53.4645 19.7386 54.8963 20.2614C56.3395 20.7727 57.6122 21.5682 58.7145 22.6477C59.8281 23.7273 60.7031 25.1023 61.3395 26.7727C61.9759 28.4318 62.294 30.4091 62.294 32.7045V34.5966H40.8338V30.4375H56.3793C56.3679 29.2557 56.1122 28.2045 55.6122 27.2841C55.1122 26.3523 54.4134 25.6193 53.5156 25.0852C52.6293 24.5511 51.5952 24.2841 50.4134 24.2841C49.152 24.2841 48.044 24.5909 47.0895 25.2045C46.1349 25.8068 45.3906 26.6023 44.8565 27.5909C44.3338 28.5682 44.0668 29.642 44.0554 30.8125V34.4432C44.0554 35.9659 44.3338 37.2727 44.8906 38.3636C45.4474 39.4432 46.2259 40.2727 47.2259 40.8523C48.2259 41.4205 49.3963 41.7045 50.7372 41.7045C51.6349 41.7045 52.4474 41.5795 53.1747 41.3295C53.902 41.0682 54.5327 40.6875 55.0668 40.1875C55.6009 39.6875 56.0043 39.0682 56.277 38.3295L62.0384 38.9773C61.6747 40.5 60.9815 41.8295 59.9588 42.9659C58.9474 44.0909 57.652 44.9659 56.0724 45.5909C54.4929 46.2045 52.6861 46.5114 50.652 46.5114ZM80.5881 19.8182V24.5909H65.5369V19.8182H80.5881ZM69.2528 13.5455H75.4233V38.125C75.4233 38.9545 75.5483 39.5909 75.7983 40.0341C76.0597 40.4659 76.4006 40.7614 76.821 40.9205C77.2415 41.0795 77.7074 41.1591 78.2188 41.1591C78.6051 41.1591 78.9574 41.1307 79.2756 41.0739C79.6051 41.017 79.8551 40.9659 80.0256 40.9205L81.0653 45.7443C80.7358 45.858 80.2642 45.983 79.6506 46.1193C79.0483 46.2557 78.3097 46.3352 77.4347 46.358C75.8892 46.4034 74.4972 46.1705 73.2585 45.6591C72.0199 45.1364 71.0369 44.3295 70.3097 43.2386C69.5938 42.1477 69.2415 40.7841 69.2528 39.1477V13.5455ZM98.8224 19.8182V24.5909H83.7713V19.8182H98.8224ZM87.4872 13.5455H93.6577V38.125C93.6577 38.9545 93.7827 39.5909 94.0327 40.0341C94.294 40.4659 94.6349 40.7614 95.0554 40.9205C95.4759 41.0795 95.9418 41.1591 96.4531 41.1591C96.8395 41.1591 97.1918 41.1307 97.5099 41.0739C97.8395 41.017 98.0895 40.9659 98.2599 40.9205L99.2997 45.7443C98.9702 45.858 98.4986 45.983 97.8849 46.1193C97.2827 46.2557 96.544 46.3352 95.669 46.358C94.1236 46.4034 92.7315 46.1705 91.4929 45.6591C90.2543 45.1364 89.2713 44.3295 88.544 43.2386C87.8281 42.1477 87.4759 40.7841 87.4872 39.1477V13.5455ZM109.54 11.0909L117.227 23.875H117.5L125.222 11.0909H132.432L121.676 28.5455L132.602 46H125.273L117.5 33.3011H117.227L109.455 46H102.159L113.188 28.5455L102.295 11.0909H109.54ZM149.303 11.0909H157.041L167.405 36.3864H167.814L178.178 11.0909H185.916V46H179.848V22.017H179.524L169.876 45.8977H165.342L155.695 21.9659H155.371V46H149.303V11.0909ZM200.064 46.5284C198.405 46.5284 196.911 46.233 195.581 45.642C194.263 45.0398 193.217 44.1534 192.445 42.983C191.683 41.8125 191.303 40.3693 191.303 38.6534C191.303 37.1761 191.575 35.9545 192.121 34.9886C192.666 34.0227 193.411 33.25 194.354 32.6705C195.297 32.0909 196.359 31.6534 197.541 31.358C198.734 31.0511 199.967 30.8295 201.24 30.6932C202.774 30.5341 204.018 30.392 204.973 30.267C205.928 30.1307 206.621 29.9261 207.053 29.6534C207.496 29.3693 207.717 28.9318 207.717 28.3409V28.2386C207.717 26.9545 207.337 25.9602 206.575 25.2557C205.814 24.5511 204.717 24.1989 203.286 24.1989C201.774 24.1989 200.575 24.5284 199.689 25.1875C198.814 25.8466 198.223 26.625 197.916 27.5227L192.155 26.7045C192.609 25.1136 193.359 23.7841 194.405 22.7159C195.45 21.6364 196.729 20.8295 198.24 20.2955C199.751 19.75 201.422 19.4773 203.251 19.4773C204.513 19.4773 205.768 19.625 207.018 19.9205C208.268 20.2159 209.411 20.7045 210.445 21.3864C211.479 22.0568 212.308 22.9716 212.933 24.1307C213.57 25.2898 213.888 26.7386 213.888 28.4773V46H207.956V42.4034H207.751C207.376 43.1307 206.848 43.8125 206.166 44.4489C205.496 45.0739 204.649 45.5795 203.626 45.9659C202.615 46.3409 201.428 46.5284 200.064 46.5284ZM201.666 41.9943C202.905 41.9943 203.979 41.75 204.888 41.2614C205.797 40.7614 206.496 40.1023 206.984 39.2841C207.484 38.4659 207.734 37.5739 207.734 36.608V33.5227C207.541 33.6818 207.212 33.8295 206.746 33.9659C206.291 34.1023 205.78 34.2216 205.212 34.3239C204.643 34.4261 204.081 34.517 203.524 34.5966C202.967 34.6761 202.484 34.7443 202.075 34.8011C201.155 34.9261 200.331 35.1307 199.604 35.4148C198.876 35.6989 198.303 36.0966 197.882 36.608C197.462 37.108 197.251 37.7557 197.251 38.5511C197.251 39.6875 197.666 40.5455 198.496 41.125C199.325 41.7045 200.382 41.9943 201.666 41.9943ZM220.092 46V19.8182H226.075V24.1818H226.348C226.825 22.6705 227.643 21.5057 228.803 20.6875C229.973 19.858 231.308 19.4432 232.808 19.4432C233.149 19.4432 233.53 19.4602 233.95 19.4943C234.382 19.517 234.74 19.5568 235.024 19.6136V25.2898C234.763 25.1989 234.348 25.1193 233.78 25.0511C233.223 24.9716 232.683 24.9318 232.161 24.9318C231.036 24.9318 230.024 25.1761 229.126 25.6648C228.24 26.142 227.541 26.8068 227.03 27.6591C226.518 28.5114 226.263 29.4943 226.263 30.608V46H220.092ZM244.749 37.7841L244.732 30.3352H245.72L255.129 19.8182H262.339L250.766 32.7045H249.487L244.749 37.7841ZM239.124 46V11.0909H245.294V46H239.124ZM255.555 46L247.033 34.0852L251.192 29.7386L262.936 46H255.555ZM276.964 46.5114C274.339 46.5114 272.072 45.9659 270.163 44.875C268.266 43.7727 266.805 42.2159 265.783 40.2045C264.76 38.1818 264.249 35.8011 264.249 33.0625C264.249 30.3693 264.76 28.0057 265.783 25.9716C266.817 23.9261 268.26 22.3352 270.112 21.1989C271.964 20.0511 274.141 19.4773 276.641 19.4773C278.254 19.4773 279.777 19.7386 281.209 20.2614C282.652 20.7727 283.925 21.5682 285.027 22.6477C286.141 23.7273 287.016 25.1023 287.652 26.7727C288.288 28.4318 288.607 30.4091 288.607 32.7045V34.5966H267.146V30.4375H282.692C282.68 29.2557 282.425 28.2045 281.925 27.2841C281.425 26.3523 280.726 25.6193 279.828 25.0852C278.942 24.5511 277.908 24.2841 276.726 24.2841C275.464 24.2841 274.357 24.5909 273.402 25.2045C272.447 25.8068 271.703 26.6023 271.169 27.5909C270.646 28.5682 270.379 29.642 270.368 30.8125V34.4432C270.368 35.9659 270.646 37.2727 271.203 38.3636C271.76 39.4432 272.538 40.2727 273.538 40.8523C274.538 41.4205 275.709 41.7045 277.05 41.7045C277.947 41.7045 278.76 41.5795 279.487 41.3295C280.214 41.0682 280.845 40.6875 281.379 40.1875C281.913 39.6875 282.317 39.0682 282.589 38.3295L288.351 38.9773C287.987 40.5 287.294 41.8295 286.271 42.9659C285.26 44.0909 283.964 44.9659 282.385 45.5909C280.805 46.2045 278.999 46.5114 276.964 46.5114ZM306.901 19.8182V24.5909H291.849V19.8182H306.901ZM295.565 13.5455H301.736V38.125C301.736 38.9545 301.861 39.5909 302.111 40.0341C302.372 40.4659 302.713 40.7614 303.134 40.9205C303.554 41.0795 304.02 41.1591 304.531 41.1591C304.918 41.1591 305.27 41.1307 305.588 41.0739C305.918 41.017 306.168 40.9659 306.338 40.9205L307.378 45.7443C307.048 45.858 306.577 45.983 305.963 46.1193C305.361 46.2557 304.622 46.3352 303.747 46.358C302.202 46.4034 300.81 46.1705 299.571 45.6591C298.332 45.1364 297.349 44.3295 296.622 43.2386C295.906 42.1477 295.554 40.7841 295.565 39.1477V13.5455ZM312.061 46V19.8182H318.232V46H312.061ZM315.163 16.1023C314.186 16.1023 313.345 15.7784 312.641 15.1307C311.936 14.4716 311.584 13.6818 311.584 12.7614C311.584 11.8295 311.936 11.0398 312.641 10.392C313.345 9.73295 314.186 9.40341 315.163 9.40341C316.152 9.40341 316.993 9.73295 317.686 10.392C318.391 11.0398 318.743 11.8295 318.743 12.7614C318.743 13.6818 318.391 14.4716 317.686 15.1307C316.993 15.7784 316.152 16.1023 315.163 16.1023ZM330.747 30.6591V46H324.577V19.8182H330.474V24.267H330.781C331.384 22.8011 332.344 21.6364 333.662 20.7727C334.991 19.9091 336.634 19.4773 338.588 19.4773C340.395 19.4773 341.969 19.8636 343.31 20.6364C344.662 21.4091 345.707 22.5284 346.446 23.9943C347.196 25.4602 347.565 27.2386 347.554 29.3295V46H341.384V30.2841C341.384 28.5341 340.929 27.1648 340.02 26.1761C339.122 25.1875 337.878 24.6932 336.287 24.6932C335.207 24.6932 334.247 24.9318 333.406 25.4091C332.577 25.875 331.923 26.5511 331.446 27.4375C330.98 28.3239 330.747 29.3977 330.747 30.6591ZM365.213 56.3636C362.997 56.3636 361.094 56.0625 359.503 55.4602C357.912 54.8693 356.634 54.0739 355.668 53.0739C354.702 52.0739 354.031 50.9659 353.656 49.75L359.213 48.4034C359.463 48.9148 359.827 49.4205 360.304 49.9205C360.781 50.4318 361.423 50.8523 362.23 51.1818C363.048 51.5227 364.077 51.6932 365.315 51.6932C367.065 51.6932 368.514 51.267 369.662 50.4148C370.81 49.5739 371.384 48.1875 371.384 46.2557V41.2955H371.077C370.759 41.9318 370.293 42.5852 369.679 43.2557C369.077 43.9261 368.276 44.4886 367.276 44.9432C366.287 45.3977 365.043 45.625 363.543 45.625C361.531 45.625 359.707 45.1534 358.071 44.2102C356.446 43.2557 355.151 41.8352 354.185 39.9489C353.23 38.0511 352.753 35.6761 352.753 32.8239C352.753 29.9489 353.23 27.5227 354.185 25.5455C355.151 23.5568 356.452 22.0511 358.088 21.0284C359.724 19.9943 361.548 19.4773 363.56 19.4773C365.094 19.4773 366.355 19.7386 367.344 20.2614C368.344 20.7727 369.139 21.392 369.73 22.1193C370.321 22.8352 370.77 23.5114 371.077 24.1477H371.418V19.8182H377.503V46.4261C377.503 48.6648 376.969 50.517 375.901 51.983C374.832 53.4489 373.372 54.5455 371.52 55.2727C369.668 56 367.565 56.3636 365.213 56.3636ZM365.264 40.7841C366.571 40.7841 367.685 40.4659 368.605 39.8295C369.526 39.1932 370.224 38.2784 370.702 37.0852C371.179 35.892 371.418 34.4602 371.418 32.7898C371.418 31.142 371.179 29.6989 370.702 28.4602C370.236 27.2216 369.543 26.2614 368.622 25.5795C367.713 24.8864 366.594 24.5398 365.264 24.5398C363.889 24.5398 362.741 24.8977 361.821 25.6136C360.901 26.3295 360.207 27.3125 359.741 28.5625C359.276 29.8011 359.043 31.2102 359.043 32.7898C359.043 34.392 359.276 35.7955 359.741 37C360.219 38.1932 360.918 39.125 361.838 39.7955C362.77 40.4545 363.912 40.7841 365.264 40.7841ZM414.977 20.6875C414.818 19.1989 414.148 18.0398 412.966 17.2102C411.795 16.3807 410.273 15.9659 408.398 15.9659C407.08 15.9659 405.949 16.1648 405.006 16.5625C404.063 16.9602 403.341 17.5 402.841 18.1818C402.341 18.8636 402.085 19.642 402.074 20.517C402.074 21.2443 402.239 21.875 402.568 22.4091C402.909 22.9432 403.369 23.3977 403.949 23.7727C404.528 24.1364 405.17 24.4432 405.875 24.6932C406.58 24.9432 407.29 25.1534 408.006 25.3239L411.278 26.142C412.597 26.4489 413.864 26.8636 415.08 27.3864C416.307 27.9091 417.403 28.5682 418.369 29.3636C419.347 30.1591 420.119 31.1193 420.688 32.2443C421.256 33.3693 421.54 34.6875 421.54 36.1989C421.54 38.2443 421.017 40.0455 419.972 41.6023C418.926 43.1477 417.415 44.358 415.438 45.233C413.472 46.0966 411.091 46.5284 408.295 46.5284C405.58 46.5284 403.222 46.108 401.222 45.267C399.233 44.4261 397.676 43.1989 396.551 41.5852C395.438 39.9716 394.835 38.0057 394.744 35.6875H400.966C401.057 36.9034 401.432 37.9148 402.091 38.7216C402.75 39.5284 403.608 40.1307 404.665 40.5284C405.733 40.9261 406.926 41.125 408.244 41.125C409.619 41.125 410.824 40.9205 411.858 40.5114C412.903 40.0909 413.722 39.5114 414.312 38.7727C414.903 38.0227 415.205 37.1477 415.216 36.1477C415.205 35.2386 414.938 34.4886 414.415 33.8977C413.892 33.2955 413.159 32.7955 412.216 32.3977C411.284 31.9886 410.193 31.625 408.943 31.3068L404.972 30.2841C402.097 29.5455 399.824 28.4261 398.153 26.9261C396.494 25.4148 395.665 23.4091 395.665 20.9091C395.665 18.8523 396.222 17.0511 397.335 15.5057C398.46 13.9602 399.989 12.7614 401.92 11.9091C403.852 11.0455 406.04 10.6136 408.483 10.6136C410.96 10.6136 413.131 11.0455 414.994 11.9091C416.869 12.7614 418.341 13.9489 419.409 15.4716C420.477 16.983 421.028 18.7216 421.062 20.6875H414.977ZM438.496 46.5114C435.871 46.5114 433.604 45.9659 431.695 44.875C429.797 43.7727 428.337 42.2159 427.314 40.2045C426.291 38.1818 425.78 35.8011 425.78 33.0625C425.78 30.3693 426.291 28.0057 427.314 25.9716C428.348 23.9261 429.791 22.3352 431.643 21.1989C433.496 20.0511 435.672 19.4773 438.172 19.4773C439.786 19.4773 441.308 19.7386 442.74 20.2614C444.183 20.7727 445.456 21.5682 446.558 22.6477C447.672 23.7273 448.547 25.1023 449.183 26.7727C449.82 28.4318 450.138 30.4091 450.138 32.7045V34.5966H428.678V30.4375H444.223C444.212 29.2557 443.956 28.2045 443.456 27.2841C442.956 26.3523 442.257 25.6193 441.359 25.0852C440.473 24.5511 439.439 24.2841 438.257 24.2841C436.996 24.2841 435.888 24.5909 434.933 25.2045C433.979 25.8068 433.234 26.6023 432.7 27.5909C432.178 28.5682 431.911 29.642 431.899 30.8125V34.4432C431.899 35.9659 432.178 37.2727 432.734 38.3636C433.291 39.4432 434.07 40.2727 435.07 40.8523C436.07 41.4205 437.24 41.7045 438.581 41.7045C439.479 41.7045 440.291 41.5795 441.018 41.3295C441.746 41.0682 442.376 40.6875 442.911 40.1875C443.445 39.6875 443.848 39.0682 444.121 38.3295L449.882 38.9773C449.518 40.5 448.825 41.8295 447.803 42.9659C446.791 44.0909 445.496 44.9659 443.916 45.5909C442.337 46.2045 440.53 46.5114 438.496 46.5114ZM455.358 46V19.8182H461.341V24.1818H461.614C462.091 22.6705 462.909 21.5057 464.068 20.6875C465.239 19.858 466.574 19.4432 468.074 19.4432C468.415 19.4432 468.795 19.4602 469.216 19.4943C469.648 19.517 470.006 19.5568 470.29 19.6136V25.2898C470.028 25.1989 469.614 25.1193 469.045 25.0511C468.489 24.9716 467.949 24.9318 467.426 24.9318C466.301 24.9318 465.29 25.1761 464.392 25.6648C463.506 26.142 462.807 26.8068 462.295 27.6591C461.784 28.5114 461.528 29.4943 461.528 30.608V46H455.358ZM498.572 19.8182L489.249 46H482.43L473.107 19.8182H479.686L485.703 39.267H485.976L492.01 19.8182H498.572ZM502.842 46V19.8182H509.013V46H502.842ZM505.945 16.1023C504.967 16.1023 504.126 15.7784 503.422 15.1307C502.717 14.4716 502.365 13.6818 502.365 12.7614C502.365 11.8295 502.717 11.0398 503.422 10.392C504.126 9.73295 504.967 9.40341 505.945 9.40341C506.933 9.40341 507.774 9.73295 508.467 10.392C509.172 11.0398 509.524 11.8295 509.524 12.7614C509.524 13.6818 509.172 14.4716 508.467 15.1307C507.774 15.7784 506.933 16.1023 505.945 16.1023ZM526.778 46.5114C524.165 46.5114 521.92 45.9375 520.045 44.7898C518.182 43.642 516.744 42.0568 515.733 40.0341C514.733 38 514.233 35.6591 514.233 33.0114C514.233 30.3523 514.744 28.0057 515.767 25.9716C516.79 23.9261 518.233 22.3352 520.097 21.1989C521.972 20.0511 524.188 19.4773 526.744 19.4773C528.869 19.4773 530.75 19.8693 532.386 20.6534C534.034 21.4261 535.347 22.5227 536.324 23.9432C537.301 25.3523 537.858 27 537.994 28.8864H532.097C531.858 27.625 531.29 26.5739 530.392 25.733C529.506 24.8807 528.318 24.4545 526.83 24.4545C525.568 24.4545 524.46 24.7955 523.506 25.4773C522.551 26.1477 521.807 27.1136 521.273 28.375C520.75 29.6364 520.489 31.1477 520.489 32.9091C520.489 34.6932 520.75 36.2273 521.273 37.5114C521.795 38.7841 522.528 39.767 523.472 40.4602C524.426 41.142 525.545 41.483 526.83 41.483C527.739 41.483 528.551 41.3125 529.267 40.9716C529.994 40.6193 530.602 40.1136 531.091 39.4545C531.58 38.7955 531.915 37.9943 532.097 37.0511H537.994C537.847 38.9034 537.301 40.5455 536.358 41.9773C535.415 43.3977 534.131 44.5114 532.506 45.3182C530.881 46.1136 528.972 46.5114 526.778 46.5114ZM554.652 46.5114C552.027 46.5114 549.76 45.9659 547.851 44.875C545.953 43.7727 544.493 42.2159 543.47 40.2045C542.447 38.1818 541.936 35.8011 541.936 33.0625C541.936 30.3693 542.447 28.0057 543.47 25.9716C544.504 23.9261 545.947 22.3352 547.8 21.1989C549.652 20.0511 551.828 19.4773 554.328 19.4773C555.942 19.4773 557.464 19.7386 558.896 20.2614C560.339 20.7727 561.612 21.5682 562.714 22.6477C563.828 23.7273 564.703 25.1023 565.339 26.7727C565.976 28.4318 566.294 30.4091 566.294 32.7045V34.5966H544.834V30.4375H560.379C560.368 29.2557 560.112 28.2045 559.612 27.2841C559.112 26.3523 558.413 25.6193 557.516 25.0852C556.629 24.5511 555.595 24.2841 554.413 24.2841C553.152 24.2841 552.044 24.5909 551.089 25.2045C550.135 25.8068 549.391 26.6023 548.857 27.5909C548.334 28.5682 548.067 29.642 548.055 30.8125V34.4432C548.055 35.9659 548.334 37.2727 548.891 38.3636C549.447 39.4432 550.226 40.2727 551.226 40.8523C552.226 41.4205 553.396 41.7045 554.737 41.7045C555.635 41.7045 556.447 41.5795 557.175 41.3295C557.902 41.0682 558.533 40.6875 559.067 40.1875C559.601 39.6875 560.004 39.0682 560.277 38.3295L566.038 38.9773C565.675 40.5 564.982 41.8295 563.959 42.9659C562.947 44.0909 561.652 44.9659 560.072 45.5909C558.493 46.2045 556.686 46.5114 554.652 46.5114ZM592.207 26.7386L586.582 27.3523C586.423 26.7841 586.145 26.25 585.747 25.75C585.361 25.25 584.838 24.8466 584.179 24.5398C583.52 24.233 582.713 24.0795 581.759 24.0795C580.474 24.0795 579.395 24.358 578.52 24.9148C577.656 25.4716 577.23 26.1932 577.241 27.0795C577.23 27.8409 577.509 28.4602 578.077 28.9375C578.656 29.4148 579.611 29.8068 580.94 30.1136L585.406 31.0682C587.884 31.6023 589.724 32.4489 590.929 33.608C592.145 34.767 592.759 36.2841 592.77 38.1591C592.759 39.8068 592.276 41.2614 591.321 42.5227C590.378 43.7727 589.065 44.75 587.384 45.4545C585.702 46.1591 583.77 46.5114 581.588 46.5114C578.384 46.5114 575.804 45.8409 573.849 44.5C571.895 43.1477 570.73 41.267 570.355 38.858L576.372 38.2784C576.645 39.4602 577.224 40.3523 578.111 40.9545C578.997 41.5568 580.151 41.858 581.571 41.858C583.037 41.858 584.213 41.5568 585.099 40.9545C585.997 40.3523 586.446 39.608 586.446 38.7216C586.446 37.9716 586.156 37.3523 585.577 36.8636C585.009 36.375 584.122 36 582.918 35.7386L578.452 34.8011C575.94 34.2784 574.082 33.3977 572.878 32.1591C571.673 30.9091 571.077 29.3295 571.088 27.4205C571.077 25.8068 571.514 24.4091 572.401 23.2273C573.298 22.0341 574.543 21.1136 576.134 20.4659C577.736 19.8068 579.582 19.4773 581.673 19.4773C584.741 19.4773 587.156 20.1307 588.918 21.4375C590.69 22.7443 591.787 24.5114 592.207 26.7386Z" fill="#1C1E1E"/>
<circle cx="595" cy="11" r="6" fill="#0069BE"/>
<circle cx="613" cy="11" r="6" fill="#F23A19"/>
</svg>
