<svg width="616" height="58" viewBox="0 0 616 58" fill="none" xmlns="http://www.w3.org/2000/svg">
<path d="M32.5135 11.0909V46H26.8885L10.4396 22.2216H10.1499V46H3.82599V11.0909H9.48509L25.9169 34.8864H26.2237V11.0909H32.5135ZM50.7223 46.5114C48.0973 46.5114 45.8303 45.9659 43.9212 44.875C42.0234 43.7727 40.5632 42.2159 39.5405 40.2045C38.5178 38.1818 38.0064 35.8011 38.0064 33.0625C38.0064 30.3693 38.5178 28.0057 39.5405 25.9716C40.5746 23.9261 42.0178 22.3352 43.87 21.1989C45.7223 20.0511 47.8984 19.4773 50.3984 19.4773C52.0121 19.4773 53.5348 19.7386 54.9666 20.2614C56.4098 20.7727 57.6825 21.5682 58.7848 22.6477C59.8984 23.7273 60.7734 25.1023 61.4098 26.7727C62.0462 28.4318 62.3643 30.4091 62.3643 32.7045V34.5966H40.9041V30.4375H56.4496C56.4382 29.2557 56.1825 28.2045 55.6825 27.2841C55.1825 26.3523 54.4837 25.6193 53.5859 25.0852C52.6996 24.5511 51.6655 24.2841 50.4837 24.2841C49.2223 24.2841 48.1143 24.5909 47.1598 25.2045C46.2053 25.8068 45.4609 26.6023 44.9268 27.5909C44.4041 28.5682 44.1371 29.642 44.1257 30.8125V34.4432C44.1257 35.9659 44.4041 37.2727 44.9609 38.3636C45.5178 39.4432 46.2962 40.2727 47.2962 40.8523C48.2962 41.4205 49.4666 41.7045 50.8075 41.7045C51.7053 41.7045 52.5178 41.5795 53.245 41.3295C53.9723 41.0682 54.603 40.6875 55.1371 40.1875C55.6712 39.6875 56.0746 39.0682 56.3473 38.3295L62.1087 38.9773C61.745 40.5 61.0518 41.8295 60.0291 42.9659C59.0178 44.0909 57.7223 44.9659 56.1428 45.5909C54.5632 46.2045 52.7564 46.5114 50.7223 46.5114ZM80.6584 19.8182V24.5909H65.6072V19.8182H80.6584ZM69.3232 13.5455H75.4936V38.125C75.4936 38.9545 75.6186 39.5909 75.8686 40.0341C76.13 40.4659 76.4709 40.7614 76.8913 40.9205C77.3118 41.0795 77.7777 41.1591 78.2891 41.1591C78.6754 41.1591 79.0277 41.1307 79.3459 41.0739C79.6754 41.017 79.9254 40.9659 80.0959 40.9205L81.1357 45.7443C80.8061 45.858 80.3345 45.983 79.7209 46.1193C79.1186 46.2557 78.38 46.3352 77.505 46.358C75.9595 46.4034 74.5675 46.1705 73.3288 45.6591C72.0902 45.1364 71.1072 44.3295 70.38 43.2386C69.6641 42.1477 69.3118 40.7841 69.3232 39.1477V13.5455ZM98.8928 19.8182V24.5909H83.8416V19.8182H98.8928ZM87.5575 13.5455H93.728V38.125C93.728 38.9545 93.853 39.5909 94.103 40.0341C94.3643 40.4659 94.7053 40.7614 95.1257 40.9205C95.5462 41.0795 96.0121 41.1591 96.5234 41.1591C96.9098 41.1591 97.2621 41.1307 97.5803 41.0739C97.9098 41.017 98.1598 40.9659 98.3303 40.9205L99.37 45.7443C99.0405 45.858 98.5689 45.983 97.9553 46.1193C97.353 46.2557 96.6143 46.3352 95.7393 46.358C94.1939 46.4034 92.8018 46.1705 91.5632 45.6591C90.3246 45.1364 89.3416 44.3295 88.6143 43.2386C87.8984 42.1477 87.5462 40.7841 87.5575 39.1477V13.5455ZM109.099 19.8182L114.383 29.483L119.752 19.8182H126.281L118.388 32.9091L126.417 46H119.923L114.383 36.5739L108.894 46H102.349L110.326 32.9091L102.553 19.8182H109.099ZM143.232 11.0909H150.971L161.335 36.3864H161.744L172.107 11.0909H179.846V46H173.778V22.017H173.454L163.806 45.8977H159.272L149.624 21.9659H149.3V46H143.232V11.0909ZM193.994 46.5284C192.335 46.5284 190.84 46.233 189.511 45.642C188.192 45.0398 187.147 44.1534 186.374 42.983C185.613 41.8125 185.232 40.3693 185.232 38.6534C185.232 37.1761 185.505 35.9545 186.05 34.9886C186.596 34.0227 187.34 33.25 188.283 32.6705C189.227 32.0909 190.289 31.6534 191.471 31.358C192.664 31.0511 193.897 30.8295 195.17 30.6932C196.704 30.5341 197.948 30.392 198.903 30.267C199.857 30.1307 200.55 29.9261 200.982 29.6534C201.425 29.3693 201.647 28.9318 201.647 28.3409V28.2386C201.647 26.9545 201.266 25.9602 200.505 25.2557C199.744 24.5511 198.647 24.1989 197.215 24.1989C195.704 24.1989 194.505 24.5284 193.619 25.1875C192.744 25.8466 192.153 26.625 191.846 27.5227L186.085 26.7045C186.539 25.1136 187.289 23.7841 188.335 22.7159C189.38 21.6364 190.658 20.8295 192.17 20.2955C193.681 19.75 195.352 19.4773 197.181 19.4773C198.442 19.4773 199.698 19.625 200.948 19.9205C202.198 20.2159 203.34 20.7045 204.374 21.3864C205.408 22.0568 206.238 22.9716 206.863 24.1307C207.499 25.2898 207.817 26.7386 207.817 28.4773V46H201.886V42.4034H201.681C201.306 43.1307 200.778 43.8125 200.096 44.4489C199.425 45.0739 198.579 45.5795 197.556 45.9659C196.545 46.3409 195.357 46.5284 193.994 46.5284ZM195.596 41.9943C196.835 41.9943 197.908 41.75 198.817 41.2614C199.727 40.7614 200.425 40.1023 200.914 39.2841C201.414 38.4659 201.664 37.5739 201.664 36.608V33.5227C201.471 33.6818 201.141 33.8295 200.675 33.9659C200.221 34.1023 199.71 34.2216 199.141 34.3239C198.573 34.4261 198.011 34.517 197.454 34.5966C196.897 34.6761 196.414 34.7443 196.005 34.8011C195.085 34.9261 194.261 35.1307 193.533 35.4148C192.806 35.6989 192.232 36.0966 191.812 36.608C191.391 37.108 191.181 37.7557 191.181 38.5511C191.181 39.6875 191.596 40.5455 192.425 41.125C193.255 41.7045 194.312 41.9943 195.596 41.9943ZM214.022 46V19.8182H220.005V24.1818H220.278C220.755 22.6705 221.573 21.5057 222.732 20.6875C223.903 19.858 225.238 19.4432 226.738 19.4432C227.079 19.4432 227.46 19.4602 227.88 19.4943C228.312 19.517 228.67 19.5568 228.954 19.6136V25.2898C228.692 25.1989 228.278 25.1193 227.71 25.0511C227.153 24.9716 226.613 24.9318 226.09 24.9318C224.965 24.9318 223.954 25.1761 223.056 25.6648C222.17 26.142 221.471 26.8068 220.96 27.6591C220.448 28.5114 220.192 29.4943 220.192 30.608V46H214.022ZM238.678 37.7841L238.661 30.3352H239.65L249.059 19.8182H256.269L244.695 32.7045H243.417L238.678 37.7841ZM233.053 46V11.0909H239.224V46H233.053ZM249.485 46L240.962 34.0852L245.121 29.7386L256.866 46H249.485ZM270.894 46.5114C268.269 46.5114 266.002 45.9659 264.093 44.875C262.195 43.7727 260.735 42.2159 259.712 40.2045C258.69 38.1818 258.178 35.8011 258.178 33.0625C258.178 30.3693 258.69 28.0057 259.712 25.9716C260.746 23.9261 262.19 22.3352 264.042 21.1989C265.894 20.0511 268.07 19.4773 270.57 19.4773C272.184 19.4773 273.707 19.7386 275.138 20.2614C276.582 20.7727 277.854 21.5682 278.957 22.6477C280.07 23.7273 280.945 25.1023 281.582 26.7727C282.218 28.4318 282.536 30.4091 282.536 32.7045V34.5966H261.076V30.4375H276.621C276.61 29.2557 276.354 28.2045 275.854 27.2841C275.354 26.3523 274.656 25.6193 273.758 25.0852C272.871 24.5511 271.837 24.2841 270.656 24.2841C269.394 24.2841 268.286 24.5909 267.332 25.2045C266.377 25.8068 265.633 26.6023 265.099 27.5909C264.576 28.5682 264.309 29.642 264.298 30.8125V34.4432C264.298 35.9659 264.576 37.2727 265.133 38.3636C265.69 39.4432 266.468 40.2727 267.468 40.8523C268.468 41.4205 269.638 41.7045 270.979 41.7045C271.877 41.7045 272.69 41.5795 273.417 41.3295C274.144 41.0682 274.775 40.6875 275.309 40.1875C275.843 39.6875 276.246 39.0682 276.519 38.3295L282.281 38.9773C281.917 40.5 281.224 41.8295 280.201 42.9659C279.19 44.0909 277.894 44.9659 276.315 45.5909C274.735 46.2045 272.928 46.5114 270.894 46.5114ZM300.83 19.8182V24.5909H285.779V19.8182H300.83ZM289.495 13.5455H295.665V38.125C295.665 38.9545 295.79 39.5909 296.04 40.0341C296.302 40.4659 296.643 40.7614 297.063 40.9205C297.484 41.0795 297.95 41.1591 298.461 41.1591C298.847 41.1591 299.2 41.1307 299.518 41.0739C299.847 41.017 300.097 40.9659 300.268 40.9205L301.308 45.7443C300.978 45.858 300.506 45.983 299.893 46.1193C299.29 46.2557 298.552 46.3352 297.677 46.358C296.131 46.4034 294.739 46.1705 293.501 45.6591C292.262 45.1364 291.279 44.3295 290.552 43.2386C289.836 42.1477 289.484 40.7841 289.495 39.1477V13.5455ZM305.991 46V19.8182H312.161V46H305.991ZM309.093 16.1023C308.116 16.1023 307.275 15.7784 306.57 15.1307C305.866 14.4716 305.513 13.6818 305.513 12.7614C305.513 11.8295 305.866 11.0398 306.57 10.392C307.275 9.73295 308.116 9.40341 309.093 9.40341C310.082 9.40341 310.923 9.73295 311.616 10.392C312.32 11.0398 312.673 11.8295 312.673 12.7614C312.673 13.6818 312.32 14.4716 311.616 15.1307C310.923 15.7784 310.082 16.1023 309.093 16.1023ZM324.677 30.6591V46H318.506V19.8182H324.404V24.267H324.711C325.313 22.8011 326.273 21.6364 327.592 20.7727C328.921 19.9091 330.563 19.4773 332.518 19.4773C334.325 19.4773 335.898 19.8636 337.239 20.6364C338.592 21.4091 339.637 22.5284 340.376 23.9943C341.126 25.4602 341.495 27.2386 341.484 29.3295V46H335.313V30.2841C335.313 28.5341 334.859 27.1648 333.95 26.1761C333.052 25.1875 331.808 24.6932 330.217 24.6932C329.137 24.6932 328.177 24.9318 327.336 25.4091C326.506 25.875 325.853 26.5511 325.376 27.4375C324.91 28.3239 324.677 29.3977 324.677 30.6591ZM359.143 56.3636C356.927 56.3636 355.023 56.0625 353.433 55.4602C351.842 54.8693 350.563 54.0739 349.597 53.0739C348.631 52.0739 347.961 50.9659 347.586 49.75L353.143 48.4034C353.393 48.9148 353.756 49.4205 354.234 49.9205C354.711 50.4318 355.353 50.8523 356.16 51.1818C356.978 51.5227 358.006 51.6932 359.245 51.6932C360.995 51.6932 362.444 51.267 363.592 50.4148C364.739 49.5739 365.313 48.1875 365.313 46.2557V41.2955H365.006C364.688 41.9318 364.222 42.5852 363.609 43.2557C363.006 43.9261 362.205 44.4886 361.205 44.9432C360.217 45.3977 358.972 45.625 357.472 45.625C355.461 45.625 353.637 45.1534 352.001 44.2102C350.376 43.2557 349.08 41.8352 348.114 39.9489C347.16 38.0511 346.683 35.6761 346.683 32.8239C346.683 29.9489 347.16 27.5227 348.114 25.5455C349.08 23.5568 350.381 22.0511 352.018 21.0284C353.654 19.9943 355.478 19.4773 357.489 19.4773C359.023 19.4773 360.285 19.7386 361.273 20.2614C362.273 20.7727 363.069 21.392 363.66 22.1193C364.251 22.8352 364.7 23.5114 365.006 24.1477H365.347V19.8182H371.433V46.4261C371.433 48.6648 370.898 50.517 369.83 51.983C368.762 53.4489 367.302 54.5455 365.45 55.2727C363.597 56 361.495 56.3636 359.143 56.3636ZM359.194 40.7841C360.501 40.7841 361.614 40.4659 362.535 39.8295C363.455 39.1932 364.154 38.2784 364.631 37.0852C365.109 35.892 365.347 34.4602 365.347 32.7898C365.347 31.142 365.109 29.6989 364.631 28.4602C364.165 27.2216 363.472 26.2614 362.552 25.5795C361.643 24.8864 360.523 24.5398 359.194 24.5398C357.819 24.5398 356.671 24.8977 355.751 25.6136C354.83 26.3295 354.137 27.3125 353.671 28.5625C353.205 29.8011 352.972 31.2102 352.972 32.7898C352.972 34.392 353.205 35.7955 353.671 37C354.148 38.1932 354.847 39.125 355.768 39.7955C356.7 40.4545 357.842 40.7841 359.194 40.7841ZM408.907 20.6875C408.748 19.1989 408.077 18.0398 406.896 17.2102C405.725 16.3807 404.202 15.9659 402.327 15.9659C401.009 15.9659 399.879 16.1648 398.935 16.5625C397.992 16.9602 397.271 17.5 396.771 18.1818C396.271 18.8636 396.015 19.642 396.004 20.517C396.004 21.2443 396.168 21.875 396.498 22.4091C396.839 22.9432 397.299 23.3977 397.879 23.7727C398.458 24.1364 399.1 24.4432 399.805 24.6932C400.509 24.9432 401.219 25.1534 401.935 25.3239L405.208 26.142C406.526 26.4489 407.793 26.8636 409.009 27.3864C410.237 27.9091 411.333 28.5682 412.299 29.3636C413.276 30.1591 414.049 31.1193 414.617 32.2443C415.185 33.3693 415.469 34.6875 415.469 36.1989C415.469 38.2443 414.947 40.0455 413.901 41.6023C412.856 43.1477 411.344 44.358 409.367 45.233C407.401 46.0966 405.021 46.5284 402.225 46.5284C399.509 46.5284 397.151 46.108 395.151 45.267C393.163 44.4261 391.606 43.1989 390.481 41.5852C389.367 39.9716 388.765 38.0057 388.674 35.6875H394.896C394.987 36.9034 395.362 37.9148 396.021 38.7216C396.68 39.5284 397.538 40.1307 398.594 40.5284C399.663 40.9261 400.856 41.125 402.174 41.125C403.549 41.125 404.754 40.9205 405.788 40.5114C406.833 40.0909 407.651 39.5114 408.242 38.7727C408.833 38.0227 409.134 37.1477 409.146 36.1477C409.134 35.2386 408.867 34.4886 408.344 33.8977C407.822 33.2955 407.089 32.7955 406.146 32.3977C405.214 31.9886 404.123 31.625 402.873 31.3068L398.901 30.2841C396.026 29.5455 393.754 28.4261 392.083 26.9261C390.424 25.4148 389.594 23.4091 389.594 20.9091C389.594 18.8523 390.151 17.0511 391.265 15.5057C392.39 13.9602 393.918 12.7614 395.85 11.9091C397.782 11.0455 399.969 10.6136 402.413 10.6136C404.89 10.6136 407.06 11.0455 408.924 11.9091C410.799 12.7614 412.271 13.9489 413.339 15.4716C414.407 16.983 414.958 18.7216 414.992 20.6875H408.907ZM432.425 46.5114C429.8 46.5114 427.533 45.9659 425.624 44.875C423.727 43.7727 422.266 42.2159 421.244 40.2045C420.221 38.1818 419.71 35.8011 419.71 33.0625C419.71 30.3693 420.221 28.0057 421.244 25.9716C422.278 23.9261 423.721 22.3352 425.573 21.1989C427.425 20.0511 429.602 19.4773 432.102 19.4773C433.715 19.4773 435.238 19.7386 436.67 20.2614C438.113 20.7727 439.386 21.5682 440.488 22.6477C441.602 23.7273 442.477 25.1023 443.113 26.7727C443.749 28.4318 444.067 30.4091 444.067 32.7045V34.5966H422.607V30.4375H438.153C438.141 29.2557 437.886 28.2045 437.386 27.2841C436.886 26.3523 436.187 25.6193 435.289 25.0852C434.403 24.5511 433.369 24.2841 432.187 24.2841C430.925 24.2841 429.817 24.5909 428.863 25.2045C427.908 25.8068 427.164 26.6023 426.63 27.5909C426.107 28.5682 425.84 29.642 425.829 30.8125V34.4432C425.829 35.9659 426.107 37.2727 426.664 38.3636C427.221 39.4432 427.999 40.2727 428.999 40.8523C429.999 41.4205 431.17 41.7045 432.511 41.7045C433.408 41.7045 434.221 41.5795 434.948 41.3295C435.675 41.0682 436.306 40.6875 436.84 40.1875C437.374 39.6875 437.778 39.0682 438.05 38.3295L443.812 38.9773C443.448 40.5 442.755 41.8295 441.732 42.9659C440.721 44.0909 439.425 44.9659 437.846 45.5909C436.266 46.2045 434.46 46.5114 432.425 46.5114ZM449.288 46V19.8182H455.271V24.1818H455.543C456.021 22.6705 456.839 21.5057 457.998 20.6875C459.168 19.858 460.504 19.4432 462.004 19.4432C462.344 19.4432 462.725 19.4602 463.146 19.4943C463.577 19.517 463.935 19.5568 464.219 19.6136V25.2898C463.958 25.1989 463.543 25.1193 462.975 25.0511C462.418 24.9716 461.879 24.9318 461.356 24.9318C460.231 24.9318 459.219 25.1761 458.322 25.6648C457.435 26.142 456.737 26.8068 456.225 27.6591C455.714 28.5114 455.458 29.4943 455.458 30.608V46H449.288ZM492.502 19.8182L483.178 46H476.36L467.036 19.8182H473.616L479.633 39.267H479.906L485.94 19.8182H492.502ZM496.772 46V19.8182H502.942V46H496.772ZM499.874 16.1023C498.897 16.1023 498.056 15.7784 497.352 15.1307C496.647 14.4716 496.295 13.6818 496.295 12.7614C496.295 11.8295 496.647 11.0398 497.352 10.392C498.056 9.73295 498.897 9.40341 499.874 9.40341C500.863 9.40341 501.704 9.73295 502.397 10.392C503.102 11.0398 503.454 11.8295 503.454 12.7614C503.454 13.6818 503.102 14.4716 502.397 15.1307C501.704 15.7784 500.863 16.1023 499.874 16.1023ZM520.708 46.5114C518.094 46.5114 515.85 45.9375 513.975 44.7898C512.112 43.642 510.674 42.0568 509.663 40.0341C508.663 38 508.163 35.6591 508.163 33.0114C508.163 30.3523 508.674 28.0057 509.697 25.9716C510.719 23.9261 512.163 22.3352 514.026 21.1989C515.901 20.0511 518.117 19.4773 520.674 19.4773C522.799 19.4773 524.68 19.8693 526.316 20.6534C527.964 21.4261 529.276 22.5227 530.254 23.9432C531.231 25.3523 531.788 27 531.924 28.8864H526.026C525.788 27.625 525.219 26.5739 524.322 25.733C523.435 24.8807 522.248 24.4545 520.759 24.4545C519.498 24.4545 518.39 24.7955 517.435 25.4773C516.481 26.1477 515.737 27.1136 515.202 28.375C514.68 29.6364 514.418 31.1477 514.418 32.9091C514.418 34.6932 514.68 36.2273 515.202 37.5114C515.725 38.7841 516.458 39.767 517.401 40.4602C518.356 41.142 519.475 41.483 520.759 41.483C521.668 41.483 522.481 41.3125 523.197 40.9716C523.924 40.6193 524.532 40.1136 525.021 39.4545C525.509 38.7955 525.844 37.9943 526.026 37.0511H531.924C531.776 38.9034 531.231 40.5455 530.288 41.9773C529.344 43.3977 528.06 44.5114 526.435 45.3182C524.81 46.1136 522.901 46.5114 520.708 46.5114ZM548.582 46.5114C545.957 46.5114 543.69 45.9659 541.781 44.875C539.883 43.7727 538.423 42.2159 537.4 40.2045C536.377 38.1818 535.866 35.8011 535.866 33.0625C535.866 30.3693 536.377 28.0057 537.4 25.9716C538.434 23.9261 539.877 22.3352 541.729 21.1989C543.582 20.0511 545.758 19.4773 548.258 19.4773C549.871 19.4773 551.394 19.7386 552.826 20.2614C554.269 20.7727 555.542 21.5682 556.644 22.6477C557.758 23.7273 558.633 25.1023 559.269 26.7727C559.906 28.4318 560.224 30.4091 560.224 32.7045V34.5966H538.763V30.4375H554.309C554.298 29.2557 554.042 28.2045 553.542 27.2841C553.042 26.3523 552.343 25.6193 551.445 25.0852C550.559 24.5511 549.525 24.2841 548.343 24.2841C547.082 24.2841 545.974 24.5909 545.019 25.2045C544.065 25.8068 543.32 26.6023 542.786 27.5909C542.263 28.5682 541.996 29.642 541.985 30.8125V34.4432C541.985 35.9659 542.263 37.2727 542.82 38.3636C543.377 39.4432 544.156 40.2727 545.156 40.8523C546.156 41.4205 547.326 41.7045 548.667 41.7045C549.565 41.7045 550.377 41.5795 551.104 41.3295C551.832 41.0682 552.462 40.6875 552.996 40.1875C553.531 39.6875 553.934 39.0682 554.207 38.3295L559.968 38.9773C559.604 40.5 558.911 41.8295 557.888 42.9659C556.877 44.0909 555.582 44.9659 554.002 45.5909C552.423 46.2045 550.616 46.5114 548.582 46.5114ZM586.137 26.7386L580.512 27.3523C580.353 26.7841 580.075 26.25 579.677 25.75C579.29 25.25 578.768 24.8466 578.109 24.5398C577.45 24.233 576.643 24.0795 575.688 24.0795C574.404 24.0795 573.325 24.358 572.45 24.9148C571.586 25.4716 571.16 26.1932 571.171 27.0795C571.16 27.8409 571.438 28.4602 572.006 28.9375C572.586 29.4148 573.54 29.8068 574.87 30.1136L579.336 31.0682C581.813 31.6023 583.654 32.4489 584.859 33.608C586.075 34.767 586.688 36.2841 586.7 38.1591C586.688 39.8068 586.205 41.2614 585.251 42.5227C584.308 43.7727 582.995 44.75 581.313 45.4545C579.631 46.1591 577.7 46.5114 575.518 46.5114C572.313 46.5114 569.734 45.8409 567.779 44.5C565.825 43.1477 564.66 41.267 564.285 38.858L570.302 38.2784C570.575 39.4602 571.154 40.3523 572.04 40.9545C572.927 41.5568 574.08 41.858 575.501 41.858C576.967 41.858 578.143 41.5568 579.029 40.9545C579.927 40.3523 580.376 39.608 580.376 38.7216C580.376 37.9716 580.086 37.3523 579.506 36.8636C578.938 36.375 578.052 36 576.847 35.7386L572.381 34.8011C569.87 34.2784 568.012 33.3977 566.808 32.1591C565.603 30.9091 565.006 29.3295 565.018 27.4205C565.006 25.8068 565.444 24.4091 566.33 23.2273C567.228 22.0341 568.472 21.1136 570.063 20.4659C571.665 19.8068 573.512 19.4773 575.603 19.4773C578.671 19.4773 581.086 20.1307 582.847 21.4375C584.62 22.7443 585.717 24.5114 586.137 26.7386Z" fill="#1C1E1E"/>
<circle cx="592" cy="11" r="6" fill="#0069BE"/>
<circle cx="610" cy="11" r="6" fill="#F23A19"/>
</svg>
