<svg width="200" height="200" viewBox="0 0 200 200" fill="none" xmlns="http://www.w3.org/2000/svg">
<path d="M159.834 185.755C156.618 188.25 152.79 189.811 148.761 190.269C144.732 190.728 140.656 190.067 136.971 188.358C135.545 187.673 134.289 186.673 133.296 185.433C131.762 183.473 93.1838 138.632 93.1838 138.632C99.2972 139.626 105.565 138.797 111.219 136.246C116.874 133.696 121.669 129.533 125.019 124.269C128.223 119.026 129.921 112.985 129.921 106.821C129.921 100.658 128.223 94.6167 125.019 89.3733C117.407 78.2579 102.561 74.7478 90.1161 76.2981C68.5262 79.428 53.0718 99.1723 48.2387 119.823C43.2898 143.224 46.8495 165.542 54.5767 186.457C56.3988 191.054 58.7912 195.398 61.6962 199.386C37.7833 188.769 18.7361 169.392 8.38715 145.155C2.46722 130.986 -0.378913 115.699 0.040441 100.324C0.459795 84.9499 4.13488 69.845 10.8182 56.0273C21.7289 34.7327 41.0324 15.0761 64.8507 6.62258C89.8556 -3.96622 123.485 -1.74316 147.824 12.4728C177.402 27.6539 199.744 65.4168 199.918 99.1137C200.575 115.747 197.291 132.299 190.339 147.39C183.387 162.481 172.968 175.674 159.95 185.872" fill="#D9D9D9"/>
<path d="M76.8331 198.947C65.8066 186.662 56.9218 170.72 63.6361 154.135C70.044 141.425 74.6799 127.88 77.4119 113.886C78.4248 129.155 87.4254 142.756 91.8823 157.411C93.746 164.571 93.4436 172.131 91.0141 179.115C88.0114 186.883 83.5274 193.98 77.8171 200L76.8331 198.947Z" fill="#D9D9D9"/>
</svg>
