<svg width="200" height="126" viewBox="0 0 200 126" fill="none" xmlns="http://www.w3.org/2000/svg">
<mask id="mask0_34_187" style="mask-type:luminance" maskUnits="userSpaceOnUse" x="0" y="0" width="18" height="45">
<path d="M0 8.70558V44.5825C0 33.7101 7.07564 27.1906 17.4111 27.1906V8.70558C17.4111 6.39672 16.494 4.18242 14.8613 2.54981C13.2287 0.917205 11.0144 0 8.70558 0C6.39672 0 4.18242 0.917205 2.54981 2.54981C0.917205 4.18242 0 6.39672 0 8.70558Z" fill="white"/>
</mask>
<g mask="url(#mask0_34_187)">
<path d="M17.4111 -0.325684H0V44.6211H17.4111V-0.325684Z" fill="url(#paint0_linear_34_187)"/>
</g>
<mask id="mask1_34_187" style="mask-type:luminance" maskUnits="userSpaceOnUse" x="0" y="27" width="47" height="98">
<path d="M17.4111 27.2291C7.07564 27.2291 0 33.7487 0 44.621V94.4766C0 114.419 11.5052 124.927 30.8146 124.927C34.8828 124.968 38.9285 124.32 42.78 123.009C24.4676 126.097 17.4111 113.575 17.4111 99.4431V41.3037H38.619C43.5087 41.3037 46.7685 38.4082 46.7685 34.228C46.7685 30.0478 43.5087 27.1523 38.619 27.1523L17.4111 27.2291Z" fill="white"/>
</mask>
<g mask="url(#mask1_34_187)">
<path d="M0.87713 20.9043L-13.3982 124.178L45.8841 132.373L60.1595 29.0988L0.87713 20.9043Z" fill="url(#paint1_linear_34_187)"/>
</g>
<mask id="mask2_34_187" style="mask-type:luminance" maskUnits="userSpaceOnUse" x="17" y="92" width="43" height="32">
<path d="M17.4107 99.3662C17.4107 113.498 24.4864 126.02 42.7796 122.933C50.0694 120.231 55.9966 114.759 59.2703 107.707L51.1017 93.0767C47.4775 103.949 41.1306 109.759 32.425 109.759C23.3551 109.759 17.3916 104.505 17.3916 92.5015L17.4107 99.3662Z" fill="white"/>
</mask>
<g mask="url(#mask2_34_187)">
<path d="M55.3737 80.5019L7.66895 95.6348L21.1609 138.167L68.8657 123.034L55.3737 80.5019Z" fill="url(#paint2_linear_34_187)"/>
</g>
<mask id="mask3_34_187" style="mask-type:luminance" maskUnits="userSpaceOnUse" x="45" y="26" width="80" height="100">
<path d="M45.5026 75.9923C45.5026 105.004 64.5244 125.119 95.1665 125.119C102.844 125.287 110.442 123.541 117.276 120.038C75.9529 126.193 62.8945 104.084 62.8945 75.6279C62.8945 54.9762 75.5885 40.8248 93.9009 40.8248C99.9118 40.789 105.854 42.0994 111.293 44.6598C113.211 45.5958 115.314 46.0936 117.448 46.1172C118.415 46.176 119.384 46.0287 120.29 45.6853C121.196 45.3418 122.019 44.8099 122.704 44.1247C123.389 43.4396 123.921 42.6168 124.264 41.7108C124.608 40.8047 124.755 39.8361 124.696 38.8689C124.696 36.146 123.066 33.4232 119.251 31.6207C111.319 27.8971 102.642 26.0345 93.8817 26.1749C65.2339 26.1749 45.4834 46.4815 45.4834 76.0305" fill="white"/>
</mask>
<g mask="url(#mask3_34_187)">
<path d="M118.774 5.40189L19.1914 33.6372L51.3445 147.037L150.927 118.802L118.774 5.40189Z" fill="url(#paint3_linear_34_187)"/>
</g>
<mask id="mask4_34_187" style="mask-type:luminance" maskUnits="userSpaceOnUse" x="45" y="26" width="80" height="51">
<path d="M45.5026 75.9923C45.5026 56.817 68.7046 40.8248 93.9009 40.8248C99.9111 40.7955 105.852 42.1056 111.293 44.6598C113.211 45.5958 115.314 46.0936 117.448 46.1172C118.415 46.176 119.384 46.0287 120.29 45.6853C121.196 45.3418 122.019 44.8099 122.704 44.1247C123.389 43.4396 123.921 42.6168 124.264 41.7108C124.608 40.8047 124.755 39.8361 124.696 38.8689C124.696 36.146 123.066 33.4232 119.251 31.6207C111.319 27.8971 102.642 26.0345 93.8817 26.1749C65.2339 26.1749 45.4834 46.4815 45.4834 76.0305" fill="white"/>
</mask>
<g mask="url(#mask4_34_187)">
<path d="M124.696 26.1367H45.4834V75.9732H124.696V26.1367Z" fill="url(#paint4_linear_34_187)"/>
</g>
<mask id="mask5_34_187" style="mask-type:luminance" maskUnits="userSpaceOnUse" x="145" y="31" width="55" height="87">
<path d="M150.985 34.2857C147.235 38.5107 145.185 43.9767 145.233 49.6259C145.233 59.7696 149.758 67.2096 161.187 75.1865L174.782 84.6208C188.377 94.0359 194.724 104.007 194.724 110.354C194.761 111.527 194.558 112.696 194.126 113.788C193.694 114.879 193.042 115.871 192.212 116.701C194.722 114.253 196.707 111.319 198.045 108.078C199.384 104.837 200.048 101.358 199.997 97.8517C199.997 86.9793 195.644 79.7311 184.772 72.1185L169.911 61.783C156.853 52.7131 151.254 43.835 151.254 37.8524C151.246 36.7354 151.467 35.6286 151.902 34.5999C152.337 33.5712 152.978 32.6421 153.785 31.8696C152.83 32.6 151.921 33.3877 151.062 34.2282" fill="white"/>
</mask>
<g mask="url(#mask5_34_187)">
<path d="M199.921 31.9463H145.176V117.123H199.921V31.9463Z" fill="url(#paint5_linear_34_187)"/>
</g>
<mask id="mask6_34_187" style="mask-type:luminance" maskUnits="userSpaceOnUse" x="141" y="84" width="54" height="42">
<path d="M183.43 97.9279C183.43 105.713 177.274 110.986 168.377 110.986C159.863 110.986 152.615 106.633 148.627 106.633C147.732 106.583 146.837 106.723 146 107.042C145.163 107.362 144.403 107.855 143.77 108.488C143.136 109.122 142.644 109.882 142.324 110.718C142.005 111.555 141.865 112.45 141.915 113.345C141.915 116.24 143.372 118.599 147.169 120.42C153.899 123.438 161.175 125.043 168.55 125.137C178.137 125.137 186.133 122.242 191.752 117.161C192.71 116.309 193.466 115.255 193.963 114.073C194.461 112.892 194.688 111.615 194.628 110.334C194.628 103.987 188.281 94.0161 174.686 84.6011C180.841 88.9539 183.391 92.5779 183.391 97.8319" fill="white"/>
</mask>
<g mask="url(#mask6_34_187)">
<path d="M191.232 71.5847L131.952 87.2803L145.41 138.107L204.69 122.412L191.232 71.5847Z" fill="url(#paint6_linear_34_187)"/>
</g>
<mask id="mask7_34_187" style="mask-type:luminance" maskUnits="userSpaceOnUse" x="151" y="26" width="47" height="36">
<path d="M153.709 31.9464C152.902 32.7189 152.261 33.648 151.826 34.6767C151.391 35.7054 151.17 36.8121 151.178 37.9291C151.178 43.9118 156.796 52.7899 169.835 61.8598C164.083 57.6988 161.494 53.883 161.494 49.3576C161.494 43.605 166.211 39.9233 172.999 39.9233C181.513 39.9233 185.501 43.9118 190.583 43.9118C191.477 43.9617 192.372 43.8224 193.209 43.5028C194.046 43.1832 194.806 42.6906 195.439 42.0571C196.073 41.4236 196.566 40.6636 196.885 39.8267C197.205 38.9898 197.344 38.0949 197.294 37.2004C197.294 34.305 195.856 31.9465 192.04 30.1248C185.905 27.3151 179.207 25.9506 172.462 26.1363C165.775 25.9569 159.213 27.9779 153.786 31.8889" fill="white"/>
</mask>
<g mask="url(#mask7_34_187)">
<path d="M197.198 26.1367H151.158V61.841H197.198V26.1367Z" fill="url(#paint7_linear_34_187)"/>
</g>
<mask id="mask8_34_187" style="mask-type:luminance" maskUnits="userSpaceOnUse" x="62" y="34" width="89" height="88">
<path d="M137.39 60.5749L133.268 74.3619C125.789 98.6378 114.092 110.335 95.7034 110.335C75.5886 110.335 62.8945 96.3751 62.8945 75.7042C62.8945 104.16 75.9529 126.269 117.276 120.114C130.507 113.23 139.922 99.2705 146.46 77.9285L150.295 65.4263C146.877 60.9593 145.085 55.4601 145.214 49.8368C145.166 44.1876 147.216 38.7216 150.967 34.4966C145.521 40.2492 140.995 48.8205 137.371 60.7858" fill="white"/>
</mask>
<g mask="url(#mask8_34_187)">
<path d="M86.8948 -4.91928L21.9668 101.158L126.965 165.425L191.893 59.348L86.8948 -4.91928Z" fill="url(#paint8_linear_34_187)"/>
</g>
<defs>
<linearGradient id="paint0_linear_34_187" x1="8.70556" y1="-0.325684" x2="9.62114" y2="39.1695" gradientUnits="userSpaceOnUse">
<stop stop-color="#D9D9D9"/>
<stop offset="1" stop-color="#F2F2F2"/>
</linearGradient>
<linearGradient id="paint1_linear_34_187" x1="-6.26053" y1="72.5413" x2="53.0218" y2="80.7358" gradientUnits="userSpaceOnUse">
<stop stop-color="#D9D9D9"/>
<stop offset="1" stop-color="#F2F2F2"/>
</linearGradient>
<linearGradient id="paint2_linear_34_187" x1="31.5213" y1="88.0683" x2="45.0133" y2="130.601" gradientUnits="userSpaceOnUse">
<stop stop-color="#D9D9D9"/>
<stop offset="1" stop-color="#F2F2F2"/>
</linearGradient>
<linearGradient id="paint3_linear_34_187" x1="68.9826" y1="19.5195" x2="101.136" y2="132.92" gradientUnits="userSpaceOnUse">
<stop stop-color="#D9D9D9"/>
<stop offset="1" stop-color="#F2F2F2"/>
</linearGradient>
<linearGradient id="paint4_linear_34_187" x1="85.0899" y1="26.1367" x2="85.0899" y2="75.9732" gradientUnits="userSpaceOnUse">
<stop stop-color="#D9D9D9"/>
<stop offset="1" stop-color="#F2F2F2"/>
</linearGradient>
<linearGradient id="paint5_linear_34_187" x1="172.548" y1="31.9463" x2="172.548" y2="117.123" gradientUnits="userSpaceOnUse">
<stop stop-color="#D9D9D9"/>
<stop offset="1" stop-color="#F2F2F2"/>
</linearGradient>
<linearGradient id="paint6_linear_34_187" x1="161.592" y1="79.4325" x2="175.05" y2="130.26" gradientUnits="userSpaceOnUse">
<stop stop-color="#D9D9D9"/>
<stop offset="1" stop-color="#F2F2F2"/>
</linearGradient>
<linearGradient id="paint7_linear_34_187" x1="174.178" y1="26.1367" x2="174.178" y2="61.841" gradientUnits="userSpaceOnUse">
<stop stop-color="#D9D9D9"/>
<stop offset="1" stop-color="#F2F2F2"/>
</linearGradient>
<linearGradient id="paint8_linear_34_187" x1="54.4308" y1="48.1195" x2="159.429" y2="112.387" gradientUnits="userSpaceOnUse">
<stop stop-color="#D9D9D9"/>
<stop offset="1" stop-color="#F2F2F2"/>
</linearGradient>
</defs>
</svg>
