<svg width="460" height="44" viewBox="0 0 460 44" fill="none" xmlns="http://www.w3.org/2000/svg">
<path d="M24.5101 8.81818V35H20.2914L7.95472 17.1662H7.73739V35H2.9945V8.81818H7.23881L19.5627 26.6648H19.7928V8.81818H24.5101ZM38.1667 35.3835C36.198 35.3835 34.4977 34.9744 33.0659 34.1562C31.6426 33.3295 30.5474 32.1619 29.7804 30.6534C29.0133 29.1364 28.6298 27.3509 28.6298 25.2969C28.6298 23.277 29.0133 21.5043 29.7804 19.9787C30.5559 18.4446 31.6383 17.2514 33.0275 16.3991C34.4167 15.5384 36.0488 15.108 37.9238 15.108C39.1341 15.108 40.2761 15.304 41.35 15.696C42.4324 16.0795 43.3869 16.6761 44.2136 17.4858C45.0488 18.2955 45.7051 19.3267 46.1824 20.5795C46.6596 21.8239 46.8983 23.3068 46.8983 25.0284V26.4474H30.8031V23.3281H42.4622C42.4537 22.4418 42.2619 21.6534 41.8869 20.9631C41.5119 20.2642 40.9877 19.7145 40.3145 19.3139C39.6497 18.9134 38.8741 18.7131 37.9877 18.7131C37.0417 18.7131 36.2108 18.9432 35.4949 19.4034C34.7789 19.8551 34.2207 20.4517 33.8201 21.1932C33.4281 21.9261 33.2278 22.7315 33.2193 23.6094V26.3324C33.2193 27.4744 33.4281 28.4545 33.8457 29.2727C34.2633 30.0824 34.8471 30.7045 35.5971 31.1392C36.3471 31.5653 37.225 31.7784 38.2306 31.7784C38.9039 31.7784 39.5133 31.6847 40.0588 31.4972C40.6042 31.3011 41.0772 31.0156 41.4778 30.6406C41.8784 30.2656 42.1809 29.8011 42.3855 29.2472L46.7065 29.733C46.4338 30.875 45.9139 31.8722 45.1468 32.7244C44.3883 33.5682 43.4167 34.2244 42.2321 34.6932C41.0474 35.1534 39.6923 35.3835 38.1667 35.3835ZM60.6188 15.3636V18.9432H49.3304V15.3636H60.6188ZM52.1174 10.6591H56.7452V29.0938C56.7452 29.7159 56.839 30.1932 57.0265 30.5256C57.2225 30.8494 57.4782 31.071 57.7935 31.1903C58.1088 31.3097 58.4583 31.3693 58.8418 31.3693C59.1316 31.3693 59.3958 31.348 59.6344 31.3054C59.8816 31.2628 60.0691 31.2244 60.1969 31.1903L60.9767 34.8082C60.7296 34.8935 60.3759 34.9872 59.9157 35.0895C59.464 35.1918 58.91 35.2514 58.2537 35.2685C57.0946 35.3026 56.0506 35.1278 55.1216 34.7443C54.1926 34.3523 53.4554 33.7472 52.91 32.929C52.373 32.1108 52.1088 31.0881 52.1174 29.8608V10.6591ZM74.2946 15.3636V18.9432H63.0062V15.3636H74.2946ZM65.7931 10.6591H70.421V29.0938C70.421 29.7159 70.5147 30.1932 70.7022 30.5256C70.8983 30.8494 71.1539 31.071 71.4693 31.1903C71.7846 31.3097 72.1341 31.3693 72.5176 31.3693C72.8074 31.3693 73.0716 31.348 73.3102 31.3054C73.5574 31.2628 73.7449 31.2244 73.8727 31.1903L74.6525 34.8082C74.4054 34.8935 74.0517 34.9872 73.5914 35.0895C73.1397 35.1918 72.5858 35.2514 71.9295 35.2685C70.7704 35.3026 69.7264 35.1278 68.7974 34.7443C67.8684 34.3523 67.1312 33.7472 66.5858 32.929C66.0488 32.1108 65.7846 31.0881 65.7931 29.8608V10.6591ZM81.949 15.3636L85.9121 22.6122L89.9391 15.3636H94.8354L88.9164 25.1818L94.9377 35H90.0669L85.9121 27.9304L81.7956 35H76.8865L82.8695 25.1818L77.04 15.3636H81.949ZM107.549 8.81818H113.353L121.126 27.7898H121.433L129.205 8.81818H135.009V35H130.458V17.0128H130.215L122.98 34.9233H119.579L112.343 16.9744H112.1V35H107.549V8.81818ZM145.62 35.3963C144.376 35.3963 143.255 35.1747 142.258 34.7315C141.269 34.2798 140.485 33.6151 139.906 32.7372C139.335 31.8594 139.049 30.777 139.049 29.4901C139.049 28.3821 139.254 27.4659 139.663 26.7415C140.072 26.017 140.63 25.4375 141.338 25.0028C142.045 24.5682 142.842 24.2401 143.728 24.0185C144.623 23.7884 145.548 23.6222 146.502 23.5199C147.653 23.4006 148.586 23.294 149.302 23.2003C150.018 23.098 150.538 22.9446 150.862 22.7401C151.194 22.527 151.36 22.1989 151.36 21.7557V21.679C151.36 20.7159 151.075 19.9702 150.504 19.4418C149.933 18.9134 149.11 18.6491 148.036 18.6491C146.903 18.6491 146.004 18.8963 145.339 19.3906C144.683 19.8849 144.24 20.4687 144.009 21.142L139.688 20.5284C140.029 19.3352 140.592 18.3381 141.376 17.5369C142.16 16.7273 143.119 16.1222 144.252 15.7216C145.386 15.3125 146.639 15.108 148.011 15.108C148.957 15.108 149.899 15.2188 150.836 15.4403C151.774 15.6619 152.63 16.0284 153.406 16.5398C154.181 17.0426 154.803 17.7287 155.272 18.598C155.749 19.4673 155.988 20.554 155.988 21.858V35H151.539V32.3026H151.386C151.105 32.848 150.708 33.3594 150.197 33.8366C149.694 34.3054 149.059 34.6847 148.292 34.9744C147.534 35.2557 146.643 35.3963 145.62 35.3963ZM146.822 31.9957C147.751 31.9957 148.556 31.8125 149.238 31.446C149.92 31.071 150.444 30.5767 150.811 29.9631C151.186 29.3494 151.373 28.6804 151.373 27.956V25.642C151.228 25.7614 150.981 25.8722 150.632 25.9744C150.291 26.0767 149.907 26.1662 149.481 26.2429C149.055 26.3196 148.633 26.3878 148.215 26.4474C147.798 26.5071 147.436 26.5582 147.129 26.6009C146.438 26.6946 145.82 26.848 145.275 27.0611C144.73 27.2741 144.299 27.5724 143.984 27.956C143.669 28.331 143.511 28.8168 143.511 29.4134C143.511 30.2656 143.822 30.9091 144.444 31.3438C145.066 31.7784 145.859 31.9957 146.822 31.9957ZM160.642 35V15.3636H165.129V18.6364H165.333C165.691 17.5028 166.305 16.6293 167.174 16.0156C168.052 15.3935 169.053 15.0824 170.178 15.0824C170.434 15.0824 170.72 15.0952 171.035 15.1207C171.359 15.1378 171.627 15.1676 171.84 15.2102V19.4673C171.644 19.3991 171.333 19.3395 170.907 19.2884C170.49 19.2287 170.085 19.1989 169.693 19.1989C168.849 19.1989 168.09 19.3821 167.417 19.7486C166.752 20.1065 166.228 20.6051 165.845 21.2443C165.461 21.8835 165.269 22.6207 165.269 23.456V35H160.642ZM179.134 28.8381L179.121 23.2514H179.862L186.919 15.3636H192.327L183.646 25.0284H182.688L179.134 28.8381ZM174.915 35V8.81818H179.543V35H174.915ZM187.239 35L180.847 26.0639L183.966 22.804L192.774 35H187.239ZM203.296 35.3835C201.327 35.3835 199.627 34.9744 198.195 34.1562C196.771 33.3295 195.676 32.1619 194.909 30.6534C194.142 29.1364 193.759 27.3509 193.759 25.2969C193.759 23.277 194.142 21.5043 194.909 19.9787C195.685 18.4446 196.767 17.2514 198.156 16.3991C199.546 15.5384 201.178 15.108 203.053 15.108C204.263 15.108 205.405 15.304 206.479 15.696C207.561 16.0795 208.516 16.6761 209.343 17.4858C210.178 18.2955 210.834 19.3267 211.311 20.5795C211.789 21.8239 212.027 23.3068 212.027 25.0284V26.4474H195.932V23.3281H207.591C207.583 22.4418 207.391 21.6534 207.016 20.9631C206.641 20.2642 206.117 19.7145 205.443 19.3139C204.779 18.9134 204.003 18.7131 203.117 18.7131C202.171 18.7131 201.34 18.9432 200.624 19.4034C199.908 19.8551 199.35 20.4517 198.949 21.1932C198.557 21.9261 198.357 22.7315 198.348 23.6094V26.3324C198.348 27.4744 198.557 28.4545 198.975 29.2727C199.392 30.0824 199.976 30.7045 200.726 31.1392C201.476 31.5653 202.354 31.7784 203.36 31.7784C204.033 31.7784 204.642 31.6847 205.188 31.4972C205.733 31.3011 206.206 31.0156 206.607 30.6406C207.007 30.2656 207.31 29.8011 207.514 29.2472L211.835 29.733C211.563 30.875 211.043 31.8722 210.276 32.7244C209.517 33.5682 208.546 34.2244 207.361 34.6932C206.176 35.1534 204.821 35.3835 203.296 35.3835ZM225.748 15.3636V18.9432H214.459V15.3636H225.748ZM217.246 10.6591H221.874V29.0938C221.874 29.7159 221.968 30.1932 222.155 30.5256C222.351 30.8494 222.607 31.071 222.922 31.1903C223.238 31.3097 223.587 31.3693 223.971 31.3693C224.26 31.3693 224.525 31.348 224.763 31.3054C225.01 31.2628 225.198 31.2244 225.326 31.1903L226.106 34.8082C225.858 34.8935 225.505 34.9872 225.045 35.0895C224.593 35.1918 224.039 35.2514 223.383 35.2685C222.224 35.3026 221.18 35.1278 220.251 34.7443C219.322 34.3523 218.584 33.7472 218.039 32.929C217.502 32.1108 217.238 31.0881 217.246 29.8608V10.6591ZM229.618 35V15.3636H234.246V35H229.618ZM231.945 12.5767C231.212 12.5767 230.581 12.3338 230.053 11.848C229.524 11.3537 229.26 10.7614 229.26 10.071C229.26 9.37216 229.524 8.77983 230.053 8.29403C230.581 7.79971 231.212 7.55256 231.945 7.55256C232.686 7.55256 233.317 7.79971 233.837 8.29403C234.365 8.77983 234.629 9.37216 234.629 10.071C234.629 10.7614 234.365 11.3537 233.837 11.848C233.317 12.3338 232.686 12.5767 231.945 12.5767ZM243.633 23.4943V35H239.005V15.3636H243.428V18.7003H243.658C244.11 17.6009 244.83 16.7273 245.819 16.0795C246.816 15.4318 248.047 15.108 249.513 15.108C250.868 15.108 252.049 15.3977 253.055 15.9773C254.069 16.5568 254.853 17.3963 255.407 18.4957C255.969 19.5952 256.246 20.929 256.238 22.4972V35H251.61V23.2131C251.61 21.9006 251.269 20.8736 250.587 20.1321C249.914 19.3906 248.981 19.0199 247.787 19.0199C246.978 19.0199 246.258 19.1989 245.627 19.5568C245.005 19.9062 244.515 20.4134 244.157 21.0781C243.807 21.7429 243.633 22.5483 243.633 23.4943ZM269.482 42.7727C267.82 42.7727 266.393 42.5469 265.199 42.0952C264.006 41.652 263.047 41.0554 262.323 40.3054C261.599 39.5554 261.096 38.7244 260.814 37.8125L264.982 36.8026C265.17 37.1861 265.442 37.5653 265.8 37.9403C266.158 38.3239 266.64 38.6392 267.245 38.8864C267.858 39.142 268.63 39.2699 269.559 39.2699C270.871 39.2699 271.958 38.9503 272.819 38.3111C273.68 37.6804 274.11 36.6406 274.11 35.1918V31.4716H273.88C273.641 31.9489 273.292 32.4389 272.831 32.9418C272.38 33.4446 271.779 33.8665 271.029 34.2074C270.287 34.5483 269.354 34.7188 268.229 34.7188C266.721 34.7188 265.353 34.3651 264.126 33.6577C262.907 32.9418 261.935 31.8764 261.211 30.4616C260.495 29.0384 260.137 27.2571 260.137 25.1179C260.137 22.9616 260.495 21.142 261.211 19.6591C261.935 18.1676 262.911 17.0384 264.138 16.2713C265.366 15.4957 266.733 15.108 268.242 15.108C269.393 15.108 270.339 15.304 271.08 15.696C271.83 16.0795 272.427 16.544 272.87 17.0895C273.313 17.6264 273.65 18.1335 273.88 18.6108H274.135V15.3636H278.699V35.3196C278.699 36.9986 278.299 38.3878 277.498 39.4872C276.697 40.5866 275.601 41.4091 274.212 41.9545C272.823 42.5 271.246 42.7727 269.482 42.7727ZM269.52 31.0881C270.501 31.0881 271.336 30.8494 272.026 30.3722C272.716 29.8949 273.241 29.2088 273.599 28.3139C273.956 27.419 274.135 26.3452 274.135 25.0923C274.135 23.8565 273.956 22.7741 273.599 21.8452C273.249 20.9162 272.729 20.196 272.039 19.6847C271.357 19.1648 270.518 18.9048 269.52 18.9048C268.489 18.9048 267.628 19.1733 266.938 19.7102C266.248 20.2472 265.728 20.9844 265.378 21.9219C265.029 22.8509 264.854 23.9077 264.854 25.0923C264.854 26.294 265.029 27.3466 265.378 28.25C265.736 29.1449 266.26 29.8437 266.951 30.3466C267.65 30.8409 268.506 31.0881 269.52 31.0881ZM306.805 16.0156C306.686 14.8991 306.183 14.0298 305.297 13.4077C304.419 12.7855 303.277 12.4744 301.871 12.4744C300.882 12.4744 300.034 12.6236 299.327 12.9219C298.619 13.2202 298.078 13.625 297.703 14.1364C297.328 14.6477 297.136 15.2315 297.128 15.8878C297.128 16.4332 297.251 16.9062 297.498 17.3068C297.754 17.7074 298.099 18.0483 298.534 18.3295C298.969 18.6023 299.45 18.8324 299.979 19.0199C300.507 19.2074 301.04 19.3651 301.577 19.4929L304.031 20.1065C305.02 20.3366 305.97 20.6477 306.882 21.0398C307.802 21.4318 308.625 21.9261 309.349 22.5227C310.082 23.1193 310.662 23.8395 311.088 24.6832C311.514 25.527 311.727 26.5156 311.727 27.6491C311.727 29.1832 311.335 30.5341 310.551 31.7017C309.767 32.8608 308.633 33.7685 307.15 34.4247C305.676 35.0724 303.89 35.3963 301.794 35.3963C299.757 35.3963 297.988 35.081 296.488 34.4503C294.997 33.8196 293.829 32.8991 292.986 31.6889C292.15 30.4787 291.699 29.0043 291.631 27.2656H296.297C296.365 28.1776 296.646 28.9361 297.14 29.5412C297.635 30.1463 298.278 30.598 299.071 30.8963C299.872 31.1946 300.767 31.3438 301.756 31.3438C302.787 31.3438 303.69 31.1903 304.466 30.8835C305.25 30.5682 305.863 30.1335 306.307 29.5795C306.75 29.017 306.976 28.3608 306.984 27.6108C306.976 26.929 306.775 26.3665 306.383 25.9233C305.991 25.4716 305.442 25.0966 304.734 24.7983C304.035 24.4915 303.217 24.2187 302.28 23.9801L299.301 23.2131C297.145 22.6591 295.44 21.8196 294.187 20.6946C292.943 19.5611 292.321 18.0568 292.321 16.1818C292.321 14.6392 292.738 13.2884 293.574 12.1293C294.417 10.9702 295.564 10.071 297.013 9.43182C298.461 8.78409 300.102 8.46023 301.934 8.46023C303.792 8.46023 305.42 8.78409 306.818 9.43182C308.224 10.071 309.328 10.9616 310.129 12.1037C310.93 13.2372 311.344 14.5412 311.369 16.0156H306.805ZM324.444 35.3835C322.475 35.3835 320.775 34.9744 319.343 34.1562C317.92 33.3295 316.825 32.1619 316.058 30.6534C315.291 29.1364 314.907 27.3509 314.907 25.2969C314.907 23.277 315.291 21.5043 316.058 19.9787C316.833 18.4446 317.916 17.2514 319.305 16.3991C320.694 15.5384 322.326 15.108 324.201 15.108C325.411 15.108 326.553 15.304 327.627 15.696C328.71 16.0795 329.664 16.6761 330.491 17.4858C331.326 18.2955 331.982 19.3267 332.46 20.5795C332.937 21.8239 333.176 23.3068 333.176 25.0284V26.4474H317.08V23.3281H328.74C328.731 22.4418 328.539 21.6534 328.164 20.9631C327.789 20.2642 327.265 19.7145 326.592 19.3139C325.927 18.9134 325.151 18.7131 324.265 18.7131C323.319 18.7131 322.488 18.9432 321.772 19.4034C321.056 19.8551 320.498 20.4517 320.097 21.1932C319.705 21.9261 319.505 22.7315 319.497 23.6094V26.3324C319.497 27.4744 319.705 28.4545 320.123 29.2727C320.541 30.0824 321.124 30.7045 321.874 31.1392C322.624 31.5653 323.502 31.7784 324.508 31.7784C325.181 31.7784 325.791 31.6847 326.336 31.4972C326.882 31.3011 327.355 31.0156 327.755 30.6406C328.156 30.2656 328.458 29.8011 328.663 29.2472L332.984 29.733C332.711 30.875 332.191 31.8722 331.424 32.7244C330.666 33.5682 329.694 34.2244 328.509 34.6932C327.325 35.1534 325.97 35.3835 324.444 35.3835ZM337.091 35V15.3636H341.578V18.6364H341.782C342.14 17.5028 342.754 16.6293 343.623 16.0156C344.501 15.3935 345.503 15.0824 346.628 15.0824C346.883 15.0824 347.169 15.0952 347.484 15.1207C347.808 15.1378 348.077 15.1676 348.29 15.2102V19.4673C348.094 19.3991 347.782 19.3395 347.356 19.2884C346.939 19.2287 346.534 19.1989 346.142 19.1989C345.298 19.1989 344.54 19.3821 343.866 19.7486C343.202 20.1065 342.677 20.6051 342.294 21.2443C341.91 21.8835 341.719 22.6207 341.719 23.456V35H337.091ZM369.502 15.3636L362.509 35H357.395L350.402 15.3636H355.337L359.85 29.9503H360.054L364.58 15.3636H369.502ZM372.704 35V15.3636H377.332V35H372.704ZM375.031 12.5767C374.298 12.5767 373.667 12.3338 373.139 11.848C372.61 11.3537 372.346 10.7614 372.346 10.071C372.346 9.37216 372.61 8.77983 373.139 8.29403C373.667 7.79971 374.298 7.55256 375.031 7.55256C375.772 7.55256 376.403 7.79971 376.923 8.29403C377.451 8.77983 377.715 9.37216 377.715 10.071C377.715 10.7614 377.451 11.3537 376.923 11.848C376.403 12.3338 375.772 12.5767 375.031 12.5767ZM390.656 35.3835C388.696 35.3835 387.013 34.9531 385.606 34.0923C384.209 33.2315 383.131 32.0426 382.372 30.5256C381.622 29 381.247 27.2443 381.247 25.2585C381.247 23.2642 381.631 21.5043 382.398 19.9787C383.165 18.4446 384.247 17.2514 385.645 16.3991C387.051 15.5384 388.713 15.108 390.631 15.108C392.224 15.108 393.635 15.402 394.862 15.9901C396.098 16.5696 397.082 17.392 397.815 18.4574C398.548 19.5142 398.966 20.75 399.068 22.1648H394.645C394.466 21.2187 394.04 20.4304 393.366 19.7997C392.702 19.1605 391.811 18.8409 390.694 18.8409C389.748 18.8409 388.917 19.0966 388.202 19.608C387.486 20.1108 386.927 20.8352 386.527 21.7812C386.135 22.7273 385.939 23.8608 385.939 25.1818C385.939 26.5199 386.135 27.6705 386.527 28.6335C386.919 29.5881 387.469 30.3253 388.176 30.8452C388.892 31.3565 389.731 31.6122 390.694 31.6122C391.376 31.6122 391.986 31.4844 392.523 31.2287C393.068 30.9645 393.524 30.5852 393.89 30.0909C394.257 29.5966 394.508 28.9957 394.645 28.2884H399.068C398.957 29.6776 398.548 30.9091 397.841 31.983C397.133 33.0483 396.17 33.8835 394.952 34.4886C393.733 35.0852 392.301 35.3835 390.656 35.3835ZM411.561 35.3835C409.593 35.3835 407.892 34.9744 406.46 34.1562C405.037 33.3295 403.942 32.1619 403.175 30.6534C402.408 29.1364 402.024 27.3509 402.024 25.2969C402.024 23.277 402.408 21.5043 403.175 19.9787C403.95 18.4446 405.033 17.2514 406.422 16.3991C407.811 15.5384 409.443 15.108 411.318 15.108C412.529 15.108 413.671 15.304 414.744 15.696C415.827 16.0795 416.781 16.6761 417.608 17.4858C418.443 18.2955 419.1 19.3267 419.577 20.5795C420.054 21.8239 420.293 23.3068 420.293 25.0284V26.4474H404.198V23.3281H415.857C415.848 22.4418 415.656 21.6534 415.281 20.9631C414.906 20.2642 414.382 19.7145 413.709 19.3139C413.044 18.9134 412.269 18.7131 411.382 18.7131C410.436 18.7131 409.605 18.9432 408.889 19.4034C408.173 19.8551 407.615 20.4517 407.215 21.1932C406.823 21.9261 406.622 22.7315 406.614 23.6094V26.3324C406.614 27.4744 406.823 28.4545 407.24 29.2727C407.658 30.0824 408.242 30.7045 408.992 31.1392C409.742 31.5653 410.619 31.7784 411.625 31.7784C412.298 31.7784 412.908 31.6847 413.453 31.4972C413.999 31.3011 414.472 31.0156 414.872 30.6406C415.273 30.2656 415.575 29.8011 415.78 29.2472L420.101 29.733C419.828 30.875 419.308 31.8722 418.541 32.7244C417.783 33.5682 416.811 34.2244 415.627 34.6932C414.442 35.1534 413.087 35.3835 411.561 35.3835ZM439.728 20.554L435.509 21.0142C435.39 20.5881 435.181 20.1875 434.883 19.8125C434.593 19.4375 434.201 19.1349 433.706 18.9048C433.212 18.6747 432.607 18.5597 431.891 18.5597C430.928 18.5597 430.118 18.7685 429.462 19.1861C428.814 19.6037 428.495 20.1449 428.503 20.8097C428.495 21.3807 428.704 21.8452 429.13 22.2031C429.564 22.5611 430.28 22.8551 431.278 23.0852L434.627 23.8011C436.485 24.2017 437.866 24.8366 438.769 25.706C439.681 26.5753 440.141 27.7131 440.15 29.1193C440.141 30.3551 439.779 31.446 439.063 32.392C438.356 33.3295 437.371 34.0625 436.11 34.5909C434.849 35.1193 433.4 35.3835 431.763 35.3835C429.36 35.3835 427.425 34.8807 425.959 33.875C424.493 32.8608 423.62 31.4503 423.339 29.6435L427.851 29.2088C428.056 30.0952 428.491 30.7642 429.155 31.2159C429.82 31.6676 430.685 31.8935 431.751 31.8935C432.85 31.8935 433.732 31.6676 434.397 31.2159C435.07 30.7642 435.407 30.206 435.407 29.5412C435.407 28.9787 435.189 28.5142 434.755 28.1477C434.329 27.7812 433.664 27.5 432.76 27.304L429.411 26.6009C427.528 26.2088 426.134 25.5483 425.231 24.6193C424.327 23.6818 423.88 22.4972 423.888 21.0653C423.88 19.8551 424.208 18.8068 424.873 17.9205C425.546 17.0256 426.479 16.3352 427.672 15.8494C428.874 15.3551 430.259 15.108 431.827 15.108C434.128 15.108 435.939 15.598 437.26 16.5781C438.59 17.5582 439.412 18.8835 439.728 20.554Z" fill="#D9D9D9"/>
<circle cx="444" cy="9" r="4" fill="#0069BE"/>
<circle cx="456" cy="9" r="4" fill="#F23A19"/>
</svg>
