<svg width="48" height="48" viewBox="0 0 48 48" fill="none" xmlns="http://www.w3.org/2000/svg">
<path d="M34 4H14C8.47715 4 4 8.47715 4 14V34C4 39.5228 8.47715 44 14 44H34C39.5228 44 44 39.5228 44 34V14C44 8.47715 39.5228 4 34 4Z" stroke="#D9D9D9" stroke-width="4" stroke-linecap="round" stroke-linejoin="round"/>
<path d="M31.9999 22.7401C32.2467 24.4046 31.9624 26.1045 31.1874 27.5981C30.4124 29.0917 29.1862 30.3029 27.6832 31.0595C26.1801 31.816 24.4768 32.0793 22.8155 31.812C21.1542 31.5447 19.6194 30.7603 18.4296 29.5704C17.2397 28.3806 16.4554 26.8459 16.188 25.1845C15.9207 23.5232 16.184 21.8199 16.9406 20.3169C17.6971 18.8138 18.9083 17.5876 20.4019 16.8126C21.8955 16.0376 23.5954 15.7533 25.2599 16.0001C26.9577 16.2519 28.5296 17.043 29.7433 18.2567C30.957 19.4704 31.7481 21.0423 31.9999 22.7401Z" stroke="#D9D9D9" stroke-width="4" stroke-linecap="round" stroke-linejoin="round"/>
<path d="M35 13H35.02" stroke="#D9D9D9" stroke-width="4" stroke-linecap="round" stroke-linejoin="round"/>
</svg>
